HIERARCHY
ROOT Hips
{
  OFFSET 0.000000 0.000000 0.000000
  CHANNELS 6 Xposition Yposition Zposition Xrotation Yrotation Zrotation
  JOINT Spine
  {
    OFFSET 0.762862 23.197727 -6.058858
    CHANNELS 3 Xrotation Yrotation Zrotation
    JOINT Chest
    {
      OFFSET 0.762862 23.197727 -6.058858
      CHANNELS 3 Xrotation Yrotation Zrotation
      JOINT Neck
      {
        OFFSET -0.270074 9.229822 -3.797407
        CHANNELS 3 Xrotation Yrotation Zrotation
        JOINT Head
        {
          OFFSET 0.225285 8.430608 -7.939136
          CHANNELS 3 Xrotation Yrotation Zrotation
          End Site
          {
            OFFSET 0.067585 2.529182 -2.381741
          }
        }
      }
      JOINT LeftShoulder
      {
        OFFSET 17.595006 0.044015 0.996102
        CHANNELS 3 Xrotation Yrotation Zrotation
        JOINT LeftArm
        {
          OFFSET 3.473531 -23.049457 3.982832
          CHANNELS 3 Xrotation Yrotation Zrotation
          JOINT LeftForeArm
          {
            OFFSET 3.218371 -22.980839 -10.241008
            CHANNELS 3 Xrotation Yrotation Zrotation
            JOINT LeftHand
            {
              OFFSET -0.008887 -5.924601 -2.989147
              CHANNELS 3 Xrotation Yrotation Zrotation
              End Site
              {
                OFFSET -0.002666 -1.777380 -0.896744
              }
            }
          }
        }
      }
      JOINT RightShoulder
      {
        OFFSET -17.595006 -0.044015 -0.996102
        CHANNELS 3 Xrotation Yrotation Zrotation
        JOINT RightArm
        {
          OFFSET -5.553442 -24.118242 6.751946
          CHANNELS 3 Xrotation Yrotation Zrotation
          JOINT RightForeArm
          {
            OFFSET -3.099014 -24.977112 -8.059516
            CHANNELS 3 Xrotation Yrotation Zrotation
            JOINT RightHand
            {
              OFFSET 0.298828 -5.701374 -2.573080
              CHANNELS 3 Xrotation Yrotation Zrotation
              End Site
              {
                OFFSET 0.089648 -1.710412 -0.771924
              }
            }
          }
        }
      }
    }
  }
  JOINT LeftUpLeg
  {
    OFFSET 11.990773 -0.614304 0.788698
    CHANNELS 3 Xrotation Yrotation Zrotation
    JOINT LeftLeg
    {
      OFFSET -5.144974 -41.347031 -0.530598
      CHANNELS 3 Xrotation Yrotation Zrotation
      JOINT LeftFoot
      {
        OFFSET 2.709190 -35.138144 18.775504
        CHANNELS 3 Xrotation Yrotation Zrotation
        End Site
        {
          OFFSET 0.812757 -10.541443 5.632651
        }
      }
    }
  }
  JOINT RightUpLeg
  {
    OFFSET -11.990773 0.614304 -0.788698
    CHANNELS 3 Xrotation Yrotation Zrotation
    JOINT RightLeg
    {
      OFFSET 0.284998 -37.357294 5.081156
      CHANNELS 3 Xrotation Yrotation Zrotation
      JOINT RightFoot
      {
        OFFSET 4.690763 -28.563407 28.545631
        CHANNELS 3 Xrotation Yrotation Zrotation
        End Site
        {
          OFFSET 1.407229 -8.569022 8.563689
        }
      }
    }
  }
}
MOTION
Frames: 14
Frame Time: 0.083333
0.000000 60.000000 0.000000 0.285476 0.021387 0.120223 0.285476 0.021387 0.120223 165.542440 1.789701 27.720856 -18.567103 -1.873172 -1.757493 118.380489 5.192100 47.814413 0.231044 0.129908 0.565117 -0.461196 0.009041 -0.050243 -113.687570 14.743847 22.895425 0.000000 0.000000 0.000000 0.725345 -0.131334 0.132051 -0.370535 0.009425 -0.000790 -107.143336 -16.643754 -21.553180 0.000000 0.000000 0.000000 -2.466583 0.302253 -0.151881 1.038821 0.090555 0.021952 0.000000 0.000000 0.000000 -0.956645 0.113359 0.788435 8.380182 0.230807 -1.316804 0.000000 0.000000 0.000000
-0.996446 60.000000 -0.276369 0.358990 0.013591 0.100002 0.358990 0.013591 0.100002 165.610797 1.858939 28.973295 -18.583331 -1.867851 -1.753906 118.416639 5.152934 47.707948 0.248185 0.132174 0.569899 -0.287922 0.015220 -0.052714 -113.652938 14.710788 22.857883 0.000000 0.000000 0.000000 0.742418 -0.128463 0.160802 -0.294997 0.009598 -0.007216 -107.121390 -16.611397 -21.510425 0.000000 0.000000 0.000000 -2.388325 0.291020 -0.152708 1.014258 0.076065 -0.003059 0.000000 0.000000 0.000000 -0.626817 0.123468 0.885285 8.064399 0.242027 -1.282914 0.000000 0.000000 0.000000
-2.629133 60.000000 -0.666327 1.211854 0.017409 0.228120 1.211854 0.017409 0.228120 166.433580 2.525417 40.865087 -17.780546 -2.054959 -1.895844 118.660573 5.916045 54.408359 0.733054 0.398497 1.751557 -0.310201 0.068347 -0.172161 -113.412178 13.895408 21.714854 0.000000 0.000000 0.000000 2.173488 -0.362645 0.530548 -0.614120 0.027378 -0.038239 -106.333832 -16.198907 -21.221640 0.000000 0.000000 0.000000 -6.527909 0.789594 -0.450801 2.857660 0.164326 -0.109203 0.000000 0.000000 0.000000 -0.816037 0.377135 2.788237 21.979007 0.709573 -3.560387 0.000000 0.000000 0.000000
-3.449131 60.000000 -0.866614 2.135311 -0.017053 0.219008 2.135311 -0.017053 0.219008 167.319024 3.192984 53.308765 -17.215454 -2.168775 -1.986097 119.180195 6.338710 60.090021 1.141137 0.665836 3.059717 0.873996 0.196734 -0.371870 -113.306590 12.783743 20.042402 0.000000 0.000000 0.000000 3.342956 -0.540174 0.902761 -0.382693 0.037187 -0.086908 -105.693073 -15.667390 -20.661069 0.000000 0.000000 0.000000 -8.811356 1.048333 -0.744669 4.240912 0.087180 -0.483966 0.000000 0.000000 0.000000 0.975966 0.585998 4.552332 29.619947 1.048523 -4.978998 0.000000 0.000000 0.000000
-3.837260 60.000000 -1.177071 2.507267 -0.022733 0.249676 2.507267 -0.022733 0.249676 167.704719 3.009603 51.969727 -16.704011 -2.225807 -2.035831 119.824255 6.701592 66.418200 1.607621 0.930699 4.422376 2.581898 0.446238 -0.761653 -112.828964 11.553922 18.269659 0.000000 0.000000 0.000000 4.006820 -0.679966 0.971611 -0.105900 0.026111 -0.073411 -97.275182 -14.247568 -18.819861 0.000000 0.000000 0.000000 -9.197939 1.072947 -1.050063 5.204483 -0.101385 -1.038964 0.000000 0.000000 0.000000 2.001340 0.600876 4.962528 31.239513 1.059569 -5.435954 0.000000 0.000000 0.000000
-4.167594 60.000000 -1.668055 3.473210 -0.038643 0.328100 3.473210 -0.038643 0.328100 168.695735 2.686358 50.381937 -15.903446 -2.176498 -2.010135 120.733699 6.889437 73.883765 3.098510 1.248097 5.552331 6.148086 0.878208 -1.335769 -110.199520 10.475906 17.498965 0.000000 0.000000 0.000000 4.741390 -0.807436 1.164524 0.439653 -0.005107 -0.018574 -60.302971 -8.938457 -11.946573 0.000000 0.000000 0.000000 -9.320336 1.068162 -1.334280 5.630213 -0.343248 -1.618153 0.000000 0.000000 0.000000 3.095067 0.616637 5.484932 31.535013 0.999666 -5.628736 0.000000 0.000000 0.000000
-4.495794 60.000000 -2.224066 4.592905 -0.030038 0.546515 4.592905 -0.030038 0.546515 169.861211 2.139986 45.659702 -15.060155 -1.806520 -1.743082 121.516667 6.593646 78.176281 4.869179 1.638897 7.166615 9.801783 1.288241 -1.778500 -109.449941 10.115810 17.164926 0.000000 0.000000 0.000000 4.969891 -0.770209 1.550391 1.090210 -0.050009 0.068731 0.000000 0.000000 0.000000 0.000000 0.000000 0.000000 -8.578731 0.981545 -1.375804 4.673614 -0.526640 -1.818269 0.000000 0.000000 0.000000 3.756943 0.701172 6.556150 29.766097 0.772879 -5.481010 0.000000 0.000000 0.000000
-4.781167 60.000000 -2.617939 4.599382 0.094154 1.111603 4.599382 0.094154 1.111603 169.912616 2.046681 44.080647 -14.741636 -1.459541 -1.480845 121.781263 6.414950 79.370224 5.841972 1.812719 7.942827 11.800211 1.554186 -2.056352 -109.126226 10.028082 17.131977 0.000000 0.000000 0.000000 4.520959 -0.520875 2.143641 1.006199 -0.088232 0.189556 0.000000 0.000000 0.000000 0.000000 0.000000 0.000000 -8.442744 0.965230 -1.391169 4.312697 -0.558632 -1.812869 0.000000 0.000000 0.000000 4.195101 0.760518 7.369851 29.435101 0.864306 -5.212971 0.000000 0.000000 0.000000
-5.130251 60.000000 -2.787535 4.371429 0.271932 1.873280 4.371429 0.271932 1.873280 169.735910 2.125708 44.902550 -14.759554 -1.223030 -1.299127 121.806995 6.365148 79.287347 7.142035 1.902666 7.839071 11.894147 1.631105 -2.174409 -109.594291 10.157784 17.151593 0.000000 0.000000 0.000000 4.080748 -0.254356 2.799204 1.091438 -0.128147 0.302518 0.000000 0.000000 0.000000 0.000000 0.000000 0.000000 -8.655812 0.993656 -1.317031 6.333516 -0.338629 -1.743957 0.000000 0.000000 0.000000 4.485285 0.775717 7.691218 30.965808 1.566252 -4.466092 0.000000 0.000000 0.000000
-5.192196 60.000000 -2.319622 4.167607 0.407871 2.439359 4.167607 0.407871 2.439359 169.572880 2.234147 46.258511 -14.746483 -1.251151 -1.320768 121.793151 6.399774 79.350197 6.564726 1.727766 6.723256 9.944246 1.349049 -1.869821 -112.333443 10.963509 17.357433 0.000000 0.000000 0.000000 3.953942 -0.121416 3.213607 0.765831 -0.147251 0.388406 0.000000 0.000000 0.000000 0.000000 0.000000 0.000000 -8.200432 0.964675 -0.889066 8.183407 -0.072365 -1.536606 0.000000 0.000000 0.000000 4.243011 0.795272 7.739648 29.547301 1.708059 -3.826487 0.000000 0.000000 0.000000
-4.947557 60.000000 -1.529512 3.904561 0.458161 2.598912 3.904561 0.458161 2.598912 169.327308 2.463237 49.322592 -14.854024 -1.114271 -1.215496 121.548635 6.138948 75.767086 5.290918 1.396689 5.001106 6.860169 1.020281 -1.552994 -115.708885 13.988177 20.932197 0.000000 0.000000 0.000000 4.027442 -0.153493 3.159353 -0.202151 -0.147698 0.476461 0.000000 0.000000 0.000000 0.000000 0.000000 0.000000 -7.425401 0.934744 0.376133 6.661847 0.262472 -0.602574 0.000000 0.000000 0.000000 4.026955 0.841234 8.058703 28.466907 1.924604 -3.185760 0.000000 0.000000 0.000000
-4.709646 60.000000 -0.983216 3.598961 0.480972 2.623655 3.598961 0.480972 2.623655 169.034221 2.824811 54.402275 -14.977030 -1.311159 -1.366268 121.154789 6.311280 73.528746 3.145190 0.983615 3.594032 3.164584 0.740773 -1.339020 -105.039154 13.532960 20.911915 0.000000 0.000000 0.000000 4.154710 -0.245629 2.915651 -1.449418 -0.130903 0.538472 0.000000 0.000000 0.000000 0.000000 0.000000 0.000000 -6.445582 0.911636 2.449431 1.342057 0.822331 1.306410 0.000000 0.000000 0.000000 3.456318 0.933447 8.562482 25.809187 1.925974 -2.550766 0.000000 0.000000 0.000000
-4.588111 60.000000 -0.914841 3.825692 0.475053 2.654155 3.825692 0.475053 2.654155 169.268933 2.994811 58.340482 -15.058099 -1.390128 -1.426476 120.928016 6.346971 71.957829 1.901913 0.718202 2.801465 0.852067 0.542747 -1.127501 -64.493745 7.701113 12.296049 0.000000 0.000000 0.000000 4.000945 -0.294994 2.549942 -1.564470 -0.118920 0.511018 -8.730980 -1.574069 -1.899116 0.000000 0.000000 0.000000 -6.585403 0.996895 3.869758 -4.756024 0.833607 2.054589 0.000000 0.000000 0.000000 2.268111 1.094369 9.269876 21.594332 1.705933 -1.932007 0.000000 0.000000 0.000000
-4.394796 60.000000 -1.942596 4.340299 0.457954 2.706024 4.340299 0.457954 2.706024 169.781195 2.820708 57.815904 -15.103081 -1.400525 -1.434619 120.678434 6.267711 69.583311 0.637119 0.484169 2.339235 -1.132449 0.371748 -0.920804 0.000000 0.000000 0.000000 0.000000 0.000000 0.000000 4.038421 -0.398919 2.165258 -0.949202 -0.139587 0.517930 -48.324096 -8.387717 -9.867375 0.000000 0.000000 0.000000 -6.713509 1.012884 3.767859 -3.263226 0.601303 1.502040 0.000000 0.000000 0.000000 1.255643 1.190138 9.441863 20.952953 1.710578 -1.785464 0.000000 0.000000 0.000000
